<?xml version="1.0" standalone="no"?><!DOCTYPE svg PUBLIC "-//W3C//DTD SVG 1.1//EN" "http://www.w3.org/Graphics/SVG/1.1/DTD/svg11.dtd"><svg t="1542095714962" class="icon" style="" viewBox="0 0 1024 1024" version="1.1" xmlns="http://www.w3.org/2000/svg" p-id="2449" xmlns:xlink="http://www.w3.org/1999/xlink" width="32" height="32"><defs><style type="text/css"></style></defs><path d="M569.578831 512l378.213892-378.213892c15.805954-15.805954 15.805954-41.772878 0-57.578831s-41.772878-15.805954-57.578831 0l-378.213892 378.213892-378.213892-378.213892c-15.805954-15.805954-41.772878-15.805954-57.578831 0l0 0c-15.805954 15.805954-15.805954 41.772878 0 57.578831l378.213892 378.213892-378.213892 378.213892c-15.805954 15.805954-15.805954 41.772878 0 57.578831l0 0c15.805954 15.805954 41.772878 15.805954 57.578831 0l378.213892-378.213892 378.213892 378.213892c15.805954 15.805954 41.772878 15.805954 57.578831 0l0 0c15.805954-15.805954 15.805954-41.772878 0-57.578831L569.578831 512z" p-id="2450"></path></svg>